<svg t="1732690982959" class="icon" viewBox="0 0 1024 1024" version="1.1" xmlns="http://www.w3.org/2000/svg" p-id="2907"
     width="40" height="40">
    <path d="M239.872 256c63.232-0.128 123.818667 26.368 168.704 74.026667l64.938667 69.248-66.986667 71.509333-64.682667-68.992c-57.088-60.117333-148.906667-59.434667-205.226666 1.450667-56.32 60.885333-55.722667 158.890667 1.322666 218.88 56.832 59.818667 148.181333 59.392 204.501334-0.853334l66.261333-70.698666 66.986667 71.509333-66.133334 70.826667C364.586667 741.12 303.573333 768.170667 239.872 768 107.605333 768 0 653.226667 0 512c0-141.184 107.605333-256 239.872-256z m544.256 0C916.394667 256 1024 370.816 1024 512c0 141.226667-107.690667 256-240 256-63.104 0.128-123.733333-26.368-168.448-73.728l-0.512-0.554667-168.704-182.485333 168.106667-180.309333C659.285333 282.752 720.426667 255.744 784.128 256zM681.386667 402.432l-101.546667 109.056 102.528 110.976c57.173333 59.989333 149.034667 59.050667 205.226667-2.090667 56.192-61.013333 55.338667-159.018667-1.962667-218.965333-56.789333-59.477333-147.925333-59.050667-204.245333 1.024z"
          p-id="2908" fill="#1296db"></path>
</svg>